<svg width="60" height="60" viewBox="0 0 60 60" fill="none" xmlns="http://www.w3.org/2000/svg">
<path d="M30 0C46.5685 0 60 13.4315 60 30C60 46.5685 46.5685 60 30 60C13.4315 60 0 46.5685 0 30C0 13.4315 13.4315 0 30 0ZM19.209 38.6709C18.0704 38.4502 16.8899 38.5633 15.8174 38.9961C14.7448 39.429 13.8276 40.163 13.1826 41.1035C12.5379 42.0439 12.1934 43.1494 12.1934 44.2803C12.195 45.7967 12.8145 47.251 13.915 48.3232C15.0154 49.3953 16.5073 49.9983 18.0635 50C19.2245 50 20.3599 49.6646 21.3252 49.0361C22.2904 48.4077 23.043 47.5147 23.4873 46.4697C23.9316 45.4247 24.0477 44.2744 23.8213 43.165C23.5948 42.0556 23.0357 41.0362 22.2148 40.2363C21.3939 39.4365 20.3477 38.8916 19.209 38.6709ZM34.1621 38.6709C33.0235 38.4502 31.8431 38.5633 30.7705 38.9961C29.6979 39.429 28.7808 40.163 28.1357 41.1035C27.491 42.0439 27.1465 43.1494 27.1465 44.2803C27.1481 45.7967 27.7677 47.251 28.8682 48.3232C29.9686 49.3953 31.4605 49.9984 33.0166 50C34.1776 50 35.313 49.6646 36.2783 49.0361C37.2435 48.4077 37.9962 47.5147 38.4404 46.4697C38.8847 45.4247 39.0008 44.2744 38.7744 43.165C38.5479 42.0557 37.9888 41.0362 37.168 40.2363C36.347 39.4365 35.3008 38.8916 34.1621 38.6709ZM18.0635 41.5469C18.6185 41.5469 19.1616 41.7074 19.623 42.0078C20.0845 42.3083 20.4439 42.7358 20.6562 43.2354C20.8686 43.735 20.9248 44.285 20.8164 44.8154C20.708 45.3459 20.4404 45.8335 20.0479 46.2158C19.6553 46.5981 19.1547 46.8585 18.6104 46.9639C18.0661 47.0691 17.5019 47.0146 16.9893 46.8076C16.4765 46.6005 16.0377 46.2496 15.7295 45.7998C15.4214 45.3501 15.2576 44.821 15.2578 44.2803C15.2587 43.5557 15.5542 42.861 16.0801 42.3486C16.6061 41.8363 17.3197 41.5475 18.0635 41.5469ZM33.0166 41.5469C33.5717 41.5469 34.1147 41.7073 34.5762 42.0078C35.0376 42.3083 35.397 42.7357 35.6094 43.2354C35.8217 43.735 35.8779 44.285 35.7695 44.8154C35.6612 45.3459 35.3936 45.8335 35.001 46.2158C34.6084 46.5981 34.1079 46.8585 33.5635 46.9639C33.0192 47.0692 32.455 47.0146 31.9424 46.8076C31.4296 46.6005 30.9909 46.2496 30.6826 45.7998C30.3745 45.3501 30.2098 44.821 30.21 44.2803C30.2109 43.5556 30.5073 42.861 31.0332 42.3486C31.5593 41.8362 32.2727 41.5475 33.0166 41.5469ZM42.5146 10C42.1931 10 41.879 10.099 41.6182 10.2822C41.3577 10.4653 41.1631 10.7236 41.0615 11.0205L38.4355 18.7051H11.5352C11.3046 18.7046 11.077 18.7554 10.8691 18.8525C10.6613 18.9498 10.4778 19.092 10.334 19.2676C10.1904 19.4431 10.0892 19.6483 10.0381 19.8672C9.98701 20.0861 9.98746 20.3134 10.0391 20.5322L13.5723 35.5059C13.6494 35.8354 13.8392 36.1299 14.1104 36.3408C14.3816 36.5517 14.7184 36.6669 15.0654 36.667H36.0137C36.3611 36.6675 36.6989 36.5526 36.9707 36.3418C37.2425 36.1309 37.4325 35.8359 37.5098 35.5059L41.0234 20.5957L43.623 12.9854H48.4678C48.874 12.9854 49.2645 12.8278 49.5518 12.5479C49.8389 12.268 50 11.8879 50 11.4922C49.9999 11.0966 49.8387 10.7173 49.5518 10.4375C49.2645 10.1576 48.874 10 48.4678 10H42.5146ZM37.6211 21.6934L34.7949 33.6816H16.2852L13.459 21.6934H37.6211Z" fill="#605151"/>
</svg>
