<svg width="40" height="40" viewBox="0 0 40 40" fill="none" xmlns="http://www.w3.org/2000/svg">
<path d="M20 0C31.0457 0 40 8.95431 40 20C40 31.0457 31.0457 40 20 40C8.95431 40 0 31.0457 0 20C0 8.95431 8.95431 0 20 0ZM29.3818 10.25C28.7472 9.78959 27.8916 9.98153 27.4707 10.6875L18.3916 25.9707L12.4033 18.54C11.8997 17.9106 11.0228 17.8568 10.457 18.4248C9.89138 18.9851 9.843 19.9605 10.3535 20.5898L17.5361 29.4932C17.7982 29.8154 18.1704 29.9999 18.5635 30H18.667C19.0947 29.9693 19.4812 29.7155 19.7158 29.3164L29.7754 12.376C30.189 11.6699 30.0164 10.7181 29.3818 10.25Z" fill="#605151"/>
</svg>
