<svg width="40" height="40" viewBox="0 0 40 40" fill="none" xmlns="http://www.w3.org/2000/svg">
<path d="M20 0C31.0457 0 40 8.95431 40 20C40 31.0457 31.0457 40 20 40C8.95431 40 0 31.0457 0 20C0 8.95431 8.95431 0 20 0ZM12.3076 10C12.1037 10 11.9079 10.0751 11.7637 10.209C11.6195 10.3428 11.5382 10.5246 11.5381 10.7139V19.2861H10.7695C10.5655 19.2861 10.3698 19.3612 10.2256 19.4951C10.0813 19.6291 10 19.8106 10 20V23.5713C9.99958 23.721 10.0497 23.8675 10.1436 23.9893C10.2374 24.111 10.3707 24.2021 10.5234 24.25L11.5381 24.5645V29.2861C11.5382 29.4754 11.6195 29.6572 11.7637 29.791C11.9079 29.9249 12.1037 30 12.3076 30H27.6924C27.8963 30 28.0921 29.9249 28.2363 29.791C28.3805 29.6572 28.4618 29.4754 28.4619 29.2861V24.8711L29.0771 24.9854C29.1887 25.0057 29.3038 25.0034 29.4141 24.9775C29.5245 24.9516 29.628 24.9033 29.7158 24.8359C29.8038 24.7696 29.8747 24.6857 29.9238 24.5908C29.973 24.4958 29.9992 24.3915 30 24.2861V20C30 19.8106 29.9187 19.6291 29.7744 19.4951C29.6302 19.3612 29.4345 19.2861 29.2305 19.2861H28.4619V10.7139C28.4618 10.5246 28.3805 10.3428 28.2363 10.209C28.0921 10.0751 27.8963 10 27.6924 10H12.3076ZM26.9229 24.5859V28.5713H13.0771V25.0361L15.1387 25.6787C15.2185 25.7009 15.3014 25.7124 15.3848 25.7139C15.4765 25.7146 15.5681 25.7009 15.6543 25.6719L21.5996 23.5713L26.9229 24.5859ZM28.4619 23.4141L21.6924 22.1426C21.5542 22.1059 21.4077 22.106 21.2695 22.1426L15.3848 24.2432L11.5381 23.0576V20.7139H28.4619V23.4141ZM19.2305 19.2861H13.0771V17.1426H19.2305V19.2861ZM26.9229 19.2861H20.7695V17.1426H26.9229V19.2861ZM19.2305 15.7139H13.0771V11.4287H19.2305V15.7139ZM26.9229 15.7139H20.7695V11.4287H26.9229V15.7139Z" fill="#605151"/>
</svg>
