<svg width="40" height="40" viewBox="0 0 40 40" fill="none" xmlns="http://www.w3.org/2000/svg">
<path d="M20 0C31.0457 0 40 8.95431 40 20C40 31.0457 31.0457 40 20 40C8.95431 40 0 31.0457 0 20C0 8.95431 8.95431 0 20 0ZM11.333 13.5C11.057 13.5002 10.833 13.724 10.833 14V16.2373H10C9.72386 16.2373 9.5 16.4612 9.5 16.7373C9.50025 17.0132 9.72401 17.2373 10 17.2373H18C18.276 17.2373 18.4998 17.0132 18.5 16.7373C18.5 16.4612 18.2761 16.2373 18 16.2373H11.833V14.5H22.833V24.4473H18.4521C18.2253 23.2846 17.2226 22.3945 16 22.3945C14.7774 22.3945 13.7747 23.2846 13.5479 24.4473H11.833V22.7109H12.667C12.9428 22.7108 13.1668 22.4868 13.167 22.2109C13.167 21.9349 12.943 21.7111 12.667 21.7109H10C9.72386 21.7109 9.5 21.9348 9.5 22.2109C9.50022 22.4869 9.72399 22.7109 10 22.7109H10.833V24.9473C10.833 25.2233 11.057 25.4471 11.333 25.4473H13.5479C13.7746 26.61 14.7774 27.5 16 27.5C17.2226 27.5 18.2254 26.61 18.4521 25.4473H22.8818C23.1086 26.6098 24.1106 27.4998 25.333 27.5C26.5556 27.5 27.5584 26.61 27.7852 25.4473H30C30.2761 25.4473 30.5 25.2234 30.5 24.9473V20.8418C30.4999 20.6545 30.3951 20.4831 30.2285 20.3975L27.833 19.168V15.3682C27.8329 15.0921 27.6091 14.8682 27.333 14.8682H23.833V14C23.833 13.7239 23.6091 13.5 23.333 13.5H11.333ZM16 23.3945C16.8162 23.3945 17.4999 24.0775 17.5 24.9473C17.5 25.8171 16.8163 26.5 16 26.5C15.1837 26.5 14.5 25.8171 14.5 24.9473C14.5001 24.0775 15.1838 23.3945 16 23.3945ZM25.333 23.3945C26.1492 23.3945 26.833 24.0775 26.833 24.9473C26.833 25.8171 26.1493 26.5 25.333 26.5C24.5169 26.4998 23.833 25.817 23.833 24.9473C23.8331 24.0776 24.5169 23.3947 25.333 23.3945ZM26.833 15.8682V19.4736C26.833 19.6611 26.9387 19.8333 27.1055 19.9189L29.5 21.1475V24.4473H27.7852C27.5583 23.2847 26.5556 22.3945 25.333 22.3945C24.7669 22.3946 24.2495 22.5878 23.833 22.9082V15.8682H26.833ZM10 18.9736C9.72387 18.9736 9.50003 19.1975 9.5 19.4736C9.5 19.7498 9.72386 19.9736 10 19.9736H15.333C15.6092 19.9736 15.833 19.7498 15.833 19.4736C15.833 19.1975 15.6091 18.9736 15.333 18.9736H10Z" fill="#605151"/>
</svg>
