<svg width="40" height="40" viewBox="0 0 40 40" fill="none" xmlns="http://www.w3.org/2000/svg">
<path d="M20 0C31.0457 0 40 8.95431 40 20C40 31.0457 31.0457 40 20 40C8.95431 40 0 31.0457 0 20C0 8.95431 8.95431 0 20 0ZM23.8223 10.7764C23.5677 10.6925 23.3135 10.7759 23.2285 11.0273C23.1437 11.2789 23.2281 11.6141 23.4824 11.6982C27.2181 13.2083 29.5105 17.0679 29.0859 21.0107C28.5764 25.5405 24.7564 28.9794 20.2568 29.0635L21.4453 28.1406C21.6149 27.9728 21.7 27.7212 21.5303 27.4697C21.3605 27.2181 21.1053 27.218 20.8506 27.3857L18.7285 29.0635C18.6436 29.1474 18.5586 29.2316 18.5586 29.3994C18.5586 29.5672 18.5587 29.6515 18.6436 29.7354L20.3418 31.832C20.4266 31.9158 20.5957 31.9998 20.6807 32C20.7656 32 20.8507 31.9999 20.9355 31.916C21.1053 31.7482 21.1903 31.4968 21.0205 31.2451L19.917 29.9023C25.011 29.9023 29.3411 26.1278 29.9355 21.0107C30.445 16.6485 27.8976 12.4542 23.8223 10.7764ZM19.7471 8.17578C19.5773 8.00804 19.323 7.92417 19.0684 8.0918C18.8137 8.25958 18.8136 8.51103 18.9834 8.7627L20.0869 10.1045C14.9928 10.1045 10.6627 13.8798 10.0684 18.9971C9.55894 23.2754 11.9365 27.3858 16.0967 29.1475H16.2656C16.4353 29.1475 16.6055 29.064 16.6904 28.8965C16.7753 28.6448 16.6903 28.3925 16.4355 28.3086C12.7001 26.7146 10.4925 23.0237 10.917 19.0811C11.4264 14.4671 15.2472 11.1112 19.7471 11.0273L18.5586 11.9502C18.3888 12.1179 18.304 12.3695 18.4736 12.6211C18.5585 12.705 18.7286 12.7891 18.8135 12.7891C18.8983 12.7891 18.9836 12.7889 19.0684 12.7051L21.1904 11.0273C21.5299 10.7757 21.6151 10.5241 21.4453 10.2725L19.7471 8.17578ZM17.2002 16.1445C15.7569 15.4735 14.3135 15.5578 13.04 15.7256C12.8702 15.7256 12.7002 15.8098 12.7002 15.9775C12.7 16.1452 12.6154 16.3127 12.7002 16.3965C12.87 16.6482 13.1251 16.9837 13.21 17.2354C13.4646 17.7386 13.6338 18.3259 13.7188 18.8291C13.9735 20.0874 15.1623 21.2617 16.8604 21.2617H17.3701C17.6247 21.2615 17.7939 21.0104 17.7939 20.7588C17.7939 20.5072 17.5398 20.339 17.2852 20.3389C16.0116 20.5066 14.9081 19.6679 14.7383 18.7451C14.6534 18.1579 14.4831 17.4866 14.1436 16.8994C14.0588 16.7321 13.9738 16.732 13.9736 16.6484C15.0773 16.5646 16.0114 16.648 16.8604 17.0674C17.3698 17.3191 17.7941 17.7389 17.9639 18.3262C18.0488 18.5778 18.1337 18.9136 18.0488 19.333C17.6243 18.8297 17.1148 18.4095 16.5205 17.8223C16.3507 17.6549 16.0116 17.6551 15.8418 17.9062C15.672 18.1579 15.672 18.4103 15.9268 18.5781C16.7754 19.249 17.3695 19.9198 17.7939 20.5068C17.7939 20.5907 17.879 20.5911 17.9639 20.6748C18.8128 21.7652 19.0675 22.6042 19.2373 23.1914C19.2373 23.2753 19.3223 23.3595 19.3223 23.4434C18.8129 24.45 18.5585 25.3729 18.3887 26.0439C18.3038 26.2956 18.4738 26.5469 18.7285 26.5469H18.8135C19.0679 26.5467 19.2372 26.3794 19.2373 26.1279C19.3222 25.4569 19.6624 24.5341 20.0869 23.6113C20.3416 23.0242 20.766 22.4368 21.1904 21.8496H21.2754C22.2851 21.4339 23.5448 21.6772 23.5674 21.6816C23.8221 21.7655 24.0772 21.5974 24.1621 21.3457C24.2468 21.0941 24.0769 20.8426 23.8223 20.7588C23.8108 20.756 23.1357 20.5916 22.2939 20.6748C22.9732 20.0876 23.7379 19.5005 24.6719 19.0811C24.9262 18.997 25.0105 18.6619 24.9258 18.4941C24.8409 18.3264 24.5019 18.1584 24.332 18.2422C23.8226 18.4938 23.3132 18.7455 22.8887 19.0811V18.9971C22.9735 18.7454 22.8035 18.494 22.5488 18.4102C22.2942 18.3263 22.0391 18.4935 21.9541 18.7451L21.5303 20.0039V20.0879C20.936 20.6751 20.4265 21.3465 20.002 22.0176C19.7473 21.2627 19.917 20.5912 20.002 20.0879C20.2567 19.249 20.9361 18.4937 21.7002 18.0742C23.1434 17.4033 24.6714 17.3196 26.4541 17.4873C26.2845 17.7387 26.2001 17.9066 26.1152 18.0742C25.6058 18.997 25.4354 19.9199 25.2656 20.7588C25.0958 21.5977 24.5864 22.437 23.9072 22.8564C23.1432 23.3596 22.2091 23.443 21.1055 23.1914C20.8508 23.1076 20.5956 23.2757 20.5107 23.5273C20.4261 23.7788 20.5961 24.0303 20.8506 24.1143C21.2749 24.1981 21.6995 24.2822 22.0391 24.2822C22.8881 24.2822 23.6528 24.0309 24.332 23.6953C25.2659 23.1081 25.8605 22.1851 26.1152 21.0107C26.285 20.2559 26.4545 19.3331 26.8789 18.5781C27.0487 18.3265 27.3879 17.7389 27.6426 17.4033C27.7275 17.2355 27.7275 17.0673 27.6426 16.9834C27.5576 16.8995 27.3886 16.7328 27.3037 16.7324C25.4359 16.5646 23.313 16.3966 21.2754 17.3193C20.2566 17.8226 19.408 18.7455 19.0684 19.8359C18.9835 20.0875 18.8985 20.3392 18.8984 20.5908C18.8136 20.507 18.7284 20.3398 18.6436 20.2559C18.9832 19.5009 19.0682 18.7452 18.8135 17.9902C18.5588 17.1514 17.9643 16.4801 17.2002 16.1445Z" fill="#605151"/>
</svg>
