<svg width="40" height="40" viewBox="0 0 40 40" fill="none" xmlns="http://www.w3.org/2000/svg">
<path d="M20 0C31.0457 0 40 8.95431 40 20C40 31.0457 31.0457 40 20 40C8.95431 40 0 31.0457 0 20C0 8.95431 8.95431 0 20 0ZM23.333 9C22.7809 9.00018 22.333 9.44782 22.333 10C22.333 10.5522 22.7809 10.9998 23.333 11H27.7773C28.1015 11 28.4124 11.1292 28.6416 11.3584C28.8708 11.5876 29 11.8985 29 12.2227V27.7773C29 28.1015 28.8708 28.4124 28.6416 28.6416C28.4124 28.8708 28.1015 29 27.7773 29H23.333C22.7809 29.0002 22.333 29.4478 22.333 30C22.333 30.5522 22.7809 30.9998 23.333 31H27.7773C28.6319 31 29.4524 30.6609 30.0566 30.0566C30.6609 29.4524 31 28.6319 31 27.7773V12.2227C31 11.3681 30.6609 10.5476 30.0566 9.94336C29.4524 9.33908 28.6319 9 27.7773 9H23.333ZM18.4854 13.7373C18.0948 13.3468 17.4608 13.3468 17.0703 13.7373C16.68 14.1278 16.6801 14.7609 17.0703 15.1514L20.9189 19H10C9.44772 19 9 19.4477 9 20C9 20.5523 9.44772 21 10 21H20.9189L17.0703 24.8486C16.6801 25.2391 16.68 25.8722 17.0703 26.2627C17.4608 26.6532 18.0948 26.6532 18.4854 26.2627L24.04 20.707C24.4306 20.3165 24.4306 19.6835 24.04 19.293L18.4854 13.7373Z" fill="#605151"/>
</svg>
