<svg width="40" height="40" viewBox="0 0 40 40" fill="none" xmlns="http://www.w3.org/2000/svg">
<path d="M20 0C31.0457 0 40 8.95431 40 20C40 31.0457 31.0457 40 20 40C8.95431 40 0 31.0457 0 20C0 8.95431 8.95431 0 20 0ZM12.2227 9C11.3681 9 10.5476 9.33908 9.94336 9.94336C9.33908 10.5476 9 11.3681 9 12.2227V27.7773C9 28.6319 9.33908 29.4524 9.94336 30.0566C10.5476 30.6609 11.3681 31 12.2227 31H16.667C17.2191 30.9998 17.667 30.5522 17.667 30C17.667 29.4478 17.2191 29.0002 16.667 29H12.2227C11.8985 29 11.5876 28.8708 11.3584 28.6416C11.1292 28.4124 11 28.1015 11 27.7773V12.2227C11 11.8985 11.1292 11.5876 11.3584 11.3584C11.5876 11.1292 11.8985 11 12.2227 11H16.667C17.2191 10.9998 17.667 10.5522 17.667 10C17.667 9.44782 17.2191 9.00018 16.667 9H12.2227ZM25.1514 13.7373C24.7608 13.3469 24.1278 13.3468 23.7373 13.7373C23.3468 14.1278 23.3469 14.7608 23.7373 15.1514L27.5859 19H16.667C16.1147 19 15.667 19.4477 15.667 20C15.667 20.5523 16.1147 21 16.667 21H27.5859L23.7373 24.8486C23.3469 25.2392 23.3468 25.8722 23.7373 26.2627C24.1278 26.6532 24.7608 26.6531 25.1514 26.2627L30.707 20.707C31.0976 20.3165 31.0976 19.6835 30.707 19.293L25.1514 13.7373Z" fill="#605151"/>
</svg>
