<svg width="40" height="40" viewBox="0 0 40 40" fill="none" xmlns="http://www.w3.org/2000/svg">
<path d="M20 0C31.0457 0 40 8.95431 40 20C40 31.0457 31.0457 40 20 40C8.95431 40 0 31.0457 0 20C0 8.95431 8.95431 0 20 0ZM24.8135 9.04492C24.2507 8.9406 23.7197 9.02433 23.2461 9.23535C22.3469 9.63604 21.6942 10.4748 21.2334 11.2617C20.8182 11.9708 20.4867 12.7704 20.2324 13.498C19.9781 12.7704 19.6466 11.9708 19.2314 11.2617C18.7707 10.4748 18.1179 9.63604 17.2188 9.23535C16.7452 9.02433 16.2141 8.9406 15.6514 9.04492C15.0991 9.14734 14.5784 9.4187 14.0908 9.81836C13.6278 10.198 13.2696 10.6495 13.1016 11.1846C12.9282 11.7368 12.9906 12.2727 13.1875 12.7422C13.5504 13.6069 14.3816 14.2847 15.1484 14.7803C15.4523 14.9766 15.775 15.1626 16.1035 15.3359H10C9.44772 15.3359 9 15.7837 9 16.3359V30C9 30.5523 9.44772 31 10 31H30C30.5523 31 31 30.5523 31 30V16.3359C31 15.7837 30.5523 15.3359 30 15.3359H24.3613C24.6898 15.1626 25.0125 14.9766 25.3164 14.7803C26.0832 14.2847 26.9145 13.6069 27.2773 12.7422C27.4742 12.2727 27.5366 11.7368 27.3633 11.1846C27.1953 10.6495 26.8371 10.198 26.374 9.81836C25.8865 9.4187 25.3658 9.14734 24.8135 9.04492ZM17 17.3359V29H11V17.3359H17ZM29 17.3359V29H23V17.3359H29ZM21 17.3359V28.3662H19V17.3359H21ZM16.0156 11.0117C16.1488 10.987 16.2708 11.0016 16.4053 11.0615C16.7222 11.2028 17.1085 11.5938 17.5059 12.2725C17.8519 12.8635 18.1336 13.5524 18.3525 14.1826C17.6557 13.8905 16.8824 13.52 16.2334 13.1006C15.5257 12.6432 15.1471 12.2423 15.0322 11.9688C14.9905 11.8692 14.9978 11.8213 15.0098 11.7832C15.0274 11.7274 15.0955 11.5808 15.3584 11.3652C15.6531 11.1236 15.8721 11.0384 16.0156 11.0117ZM24.4492 11.0117C24.5927 11.0384 24.8117 11.1236 25.1064 11.3652C25.3694 11.5808 25.4375 11.7274 25.4551 11.7832C25.467 11.8213 25.4744 11.8692 25.4326 11.9688C25.3178 12.2423 24.9391 12.6432 24.2314 13.1006C23.5822 13.5202 22.8084 13.8904 22.1113 14.1826C22.3302 13.5523 22.6129 12.8636 22.959 12.2725C23.3564 11.5938 23.7427 11.2028 24.0596 11.0615C24.194 11.0016 24.3161 10.987 24.4492 11.0117Z" fill="#605151"/>
</svg>
