<svg width="40" height="40" viewBox="0 0 40 40" fill="none" xmlns="http://www.w3.org/2000/svg">
<path d="M20 0C31.0457 0 40 8.95431 40 20C40 31.0457 31.0457 40 20 40C8.95431 40 0 31.0457 0 20C0 8.95431 8.95431 0 20 0ZM20.1396 21.5479C18.3164 21.5479 16.7598 22.1747 15.6846 23.3066V22.7021C15.6846 22.1334 15.2361 21.6702 14.6846 21.6699H8.4707C8.21086 21.6698 8.00006 21.8874 8 22.1553V29.5088C8.00015 29.7766 8.21092 29.9941 8.4707 29.9941L14.6846 30C15.2359 29.9997 15.6844 29.5373 15.6846 28.9688V28.4873L17.5967 29.001C18.0937 29.1347 18.6062 29.2031 19.1201 29.2031H23.4463C24.1413 29.2031 24.8321 29.0221 25.4404 28.6826L30.9746 25.6445C31.4429 25.3828 31.78 24.9474 31.9248 24.4189C32.0696 23.8904 32.0027 23.337 31.7363 22.8613C31.2026 21.9085 30.05 21.5718 29.1113 22.0947L25.7939 23.8994C25.7924 23.9002 25.7906 23.9015 25.7891 23.9023C25.3689 24.1371 24.9004 24.2736 24.4238 24.3018C24.5634 24.0374 24.6425 23.7346 24.6426 23.4131C24.6426 22.3847 23.8313 21.5479 22.834 21.5479H20.1396ZM14.6846 22.6406C14.7171 22.6409 14.7432 22.6685 14.7432 22.7021V28.9688C14.7429 29.0021 14.717 29.029 14.6846 29.0293H12.9219V22.6406H14.6846ZM11.9805 29.0234H8.94141V22.6406H11.9805V29.0234ZM22.834 22.5176C23.3124 22.5176 23.7019 22.9189 23.7021 23.4121C23.7021 23.9055 23.3125 24.3076 22.834 24.3076H19.6201C19.3606 24.3079 19.1506 24.5244 19.1504 24.792C19.1504 25.0597 19.3604 25.2771 19.6201 25.2773H24.2393C24.9342 25.2773 25.6241 25.0969 26.2354 24.7559L29.5527 22.9521C29.5543 22.9513 29.5561 22.9501 29.5576 22.9492C30.0453 22.6767 30.6447 22.8515 30.9219 23.3467C31.06 23.5937 31.0947 23.8809 31.0195 24.1553C30.9443 24.4296 30.7693 24.6559 30.5293 24.79L24.9951 27.8281C24.5211 28.0927 23.9854 28.2324 23.4463 28.2324H19.1201C18.6863 28.2324 18.2536 28.1754 17.834 28.0625L15.6846 27.4844V24.9111C16.5147 23.3883 18.1312 22.5176 20.1396 22.5176H22.834ZM25.0371 10C23.8569 10 22.8065 10.6415 22.2207 11.6201C21.635 10.6416 20.5854 10 19.4053 10C17.5821 10.0001 16.0989 11.5294 16.0986 13.4092C16.0986 14.8335 17.1051 16.4394 19.0898 18.1816C20.5176 19.4349 21.9233 20.2913 21.9824 20.3271C22.0546 20.3708 22.138 20.3936 22.2217 20.3936C22.3053 20.3935 22.3878 20.3708 22.46 20.3271C22.5195 20.2911 23.925 19.4347 25.3525 18.1816C27.3372 16.4395 28.3438 14.8335 28.3438 13.4092C28.3435 11.5294 26.8602 10.0002 25.0371 10ZM25.0371 10.9707C26.3413 10.9709 27.4022 12.0646 27.4023 13.4092C27.4023 15.5896 23.8639 18.2959 22.2207 19.3418C20.5773 18.2957 17.04 15.5894 17.04 13.4092C17.0402 12.0644 18.101 10.9708 19.4053 10.9707C20.6028 10.9707 21.6126 11.8937 21.7539 13.1182C21.782 13.3622 21.9824 13.5457 22.2207 13.5459C22.4592 13.5459 22.6604 13.3622 22.6885 13.1182C22.8297 11.8937 23.8395 10.9707 25.0371 10.9707ZM24.7051 15.5088C24.527 15.3137 24.2295 15.3037 24.04 15.4873C23.8885 15.6343 23.7256 15.7844 23.5566 15.9336C23.078 16.3563 22.5391 16.7818 21.9541 17.1973C21.7401 17.3493 21.6858 17.6514 21.833 17.8721C21.9243 18.0087 22.0712 18.0819 22.2207 18.082C22.3126 18.082 22.4059 18.0548 22.4873 17.9971C23.0995 17.5622 23.6653 17.1156 24.1689 16.6709C24.349 16.5119 24.5233 16.3516 24.6855 16.1943C24.8746 16.0107 24.883 15.7039 24.7051 15.5088ZM25.8281 14.0361C25.613 13.8864 25.3205 13.9444 25.1748 14.166C25.1657 14.18 25.156 14.1948 25.1465 14.209C24.9985 14.429 25.0515 14.7309 25.2646 14.8838C25.3465 14.9425 25.4405 14.9707 25.5332 14.9707C25.6819 14.9706 25.8285 14.8981 25.9199 14.7627C25.9317 14.7452 25.9427 14.7273 25.9541 14.71C26.0997 14.488 26.0433 14.1863 25.8281 14.0361Z" fill="#605151"/>
</svg>
