<svg width="40" height="40" viewBox="0 0 40 40" fill="none" xmlns="http://www.w3.org/2000/svg">
<path d="M20 0C31.0457 0 40 8.95431 40 20C40 31.0457 31.0457 40 20 40C8.95431 40 0 31.0457 0 20C0 8.95431 8.95431 0 20 0ZM27.458 10.4736C25.3086 9.59932 23.3599 10.0481 21.8916 10.9014C21.103 11.3596 20.4342 11.9447 19.917 12.5293C19.491 11.971 18.9446 11.3975 18.2676 10.9385C16.9372 10.0367 15.1456 9.60256 13.0039 10.4736C8.67762 12.2335 7.94012 17.4408 10.4121 20.793C11.5509 22.3371 13.7748 24.5929 15.6592 26.418C16.6121 27.3409 17.4967 28.1713 18.1426 28.7705C18.4656 29.0702 18.7289 29.3129 18.9121 29.4805C19.0037 29.5642 19.0753 29.6295 19.124 29.6738C19.1481 29.6957 19.167 29.7122 19.1797 29.7236C19.186 29.7294 19.191 29.7343 19.1943 29.7373C19.1959 29.7387 19.1974 29.7395 19.1982 29.7402L19.1992 29.7412V29.7422C19.58 30.0864 20.1602 30.0863 20.541 29.7422V29.7412L20.542 29.7402C20.5428 29.7395 20.5443 29.7387 20.5459 29.7373C20.5492 29.7343 20.5542 29.7294 20.5605 29.7236C20.5732 29.7122 20.5921 29.6958 20.6162 29.6738C20.6649 29.6295 20.7366 29.5642 20.8281 29.4805C21.0114 29.3129 21.2756 29.0702 21.5986 28.7705C22.2445 28.1713 23.1282 27.3408 24.0811 26.418C25.9655 24.5928 28.1893 22.3371 29.3281 20.793C30.5402 19.1494 31.1705 17.0702 30.96 15.1416C30.7446 13.1703 29.6403 11.3613 27.458 10.4736ZM13.7568 12.3262C15.2201 11.7309 16.3127 12.0292 17.1455 12.5938C18.0323 13.195 18.6558 14.13 18.9727 14.7744C19.1408 15.1165 19.489 15.333 19.8701 15.333C20.2513 15.333 20.5994 15.1164 20.7676 14.7744C21.0407 14.2189 21.8042 13.2656 22.8965 12.6309C23.952 12.0175 25.2482 11.7341 26.7041 12.3262C28.1274 12.9051 28.8265 14.0296 28.9717 15.3584C29.1215 16.7297 28.6699 18.3168 27.7188 19.6064C26.6942 20.9956 24.5917 23.14 22.6904 24.9814C21.7505 25.8918 20.8769 26.7122 20.2383 27.3047C20.1052 27.4281 19.9811 27.5402 19.8701 27.6426C19.7592 27.5404 19.6358 27.4279 19.5029 27.3047C18.8644 26.7122 17.9907 25.8918 17.0508 24.9814C15.1494 23.1399 13.046 20.9957 12.0215 19.6064C10.1671 17.092 10.8723 13.4997 13.7568 12.3262Z" fill="#605151"/>
</svg>
