<svg width="38" height="38" viewBox="0 0 38 38" fill="none" xmlns="http://www.w3.org/2000/svg">
<path d="M38 38H0V0H38V38ZM6.70249 21.823C6.61564 21.823 6.5417 21.8534 6.4809 21.9142C6.42016 21.9749 6.3897 22.053 6.3897 22.1485V30.6301C6.3897 30.7256 6.4201 30.8041 6.4809 30.8649C6.54165 30.917 6.61569 30.9429 6.70249 30.9429H7.88788C7.98337 30.9429 8.05736 30.9125 8.10947 30.8517C8.17027 30.7909 8.20062 30.7169 8.20062 30.6301V27.1386H12.0441V30.6301C12.0441 30.7169 12.0745 30.7909 12.1353 30.8517C12.1961 30.9125 12.27 30.9429 12.3569 30.9429H13.5296C13.625 30.9428 13.7031 30.9124 13.7639 30.8517C13.8247 30.7909 13.8551 30.7169 13.8551 30.6301V22.1485C13.855 22.053 13.8246 21.9749 13.7639 21.9142C13.7031 21.8534 13.625 21.823 13.5296 21.823H12.3569C12.27 21.823 12.1961 21.8534 12.1353 21.9142C12.0746 21.9749 12.0442 22.053 12.0441 22.1485V25.5101H8.20062V22.1485C8.20062 22.053 8.17022 21.9749 8.10947 21.9142C8.05736 21.8534 7.98342 21.823 7.88788 21.823H6.70249ZM16.194 21.823C16.1072 21.823 16.0332 21.8534 15.9724 21.9142C15.9117 21.9749 15.8812 22.053 15.8812 22.1485V30.6301C15.8812 30.7256 15.9116 30.8041 15.9724 30.8649C16.0332 30.917 16.1072 30.9429 16.194 30.9429H17.3794C17.4749 30.9429 17.5489 30.9125 17.601 30.8517C17.6618 30.7909 17.6922 30.7169 17.6922 30.6301V27.1386H18.8908L21.1709 30.7213C21.2056 30.7647 21.2492 30.8128 21.3013 30.8649C21.3621 30.9169 21.4489 30.9429 21.5616 30.9429H22.9034C22.9902 30.9429 23.0601 30.9125 23.1123 30.8517C23.1729 30.7909 23.2034 30.7214 23.2035 30.6433C23.2035 30.5738 23.1903 30.5257 23.1642 30.4997L20.4674 26.2262L22.9299 22.2529C22.9646 22.1922 22.9818 22.1399 22.9819 22.0965C22.9819 22.0183 22.9555 21.953 22.9034 21.9009C22.86 21.8489 22.795 21.823 22.7083 21.823H21.4185C21.2969 21.823 21.1971 21.8448 21.1189 21.8882C21.0494 21.9316 20.9927 21.9878 20.9493 22.0573L18.8256 25.5101H17.6922V22.1485C17.6922 22.053 17.6618 21.9749 17.601 21.9142C17.5489 21.8534 17.4749 21.823 17.3794 21.823H16.194ZM27.3974 21.823C27.2671 21.823 27.1627 21.8574 27.0846 21.9269C27.0151 21.9877 26.9675 22.0617 26.9414 22.1485L23.8014 30.5522C23.7841 30.5955 23.7755 30.6346 23.7755 30.6693C23.7755 30.7474 23.8018 30.8128 23.8539 30.8649C23.9146 30.9169 23.9796 30.9428 24.049 30.9429H25.1824C25.3039 30.9429 25.3911 30.917 25.4432 30.8649C25.504 30.8041 25.5431 30.7474 25.5604 30.6953L26.1727 29.1059H30.0422L30.6545 30.6953C30.6718 30.7474 30.7068 30.8041 30.7589 30.8649C30.8197 30.917 30.9109 30.9429 31.0324 30.9429H32.1659C32.2353 30.9429 32.2961 30.9169 32.3483 30.8649C32.4003 30.8128 32.4267 30.7474 32.4267 30.6693C32.4267 30.6346 32.4221 30.5955 32.4135 30.5522L29.2735 22.1485C29.2387 22.0617 29.1866 21.9877 29.1171 21.9269C29.0476 21.8575 28.9478 21.823 28.8176 21.823H27.3974ZM29.5863 27.6078H26.6286L28.1008 23.5819L29.5863 27.6078ZM28.0695 6.49257C27.3225 6.49257 26.6668 6.62725 26.1022 6.89651C25.5463 7.16577 25.1078 7.56531 24.7864 8.09514C24.4651 8.62491 24.2914 9.28492 24.2653 10.0752C24.2566 10.4574 24.252 10.8311 24.252 11.1959C24.252 11.5607 24.2566 11.9299 24.2653 12.3034C24.2913 13.1024 24.4605 13.7714 24.7732 14.3099C25.0859 14.8397 25.5204 15.2347 26.0763 15.4953C26.6321 15.7471 27.2965 15.8733 28.0695 15.8733C28.8425 15.8733 29.5069 15.7471 30.0628 15.4953C30.6273 15.2347 31.0659 14.8397 31.3786 14.3099C31.6913 13.7714 31.8609 13.1024 31.8871 12.3034C31.9044 11.9299 31.913 11.5607 31.913 11.1959C31.913 10.8311 31.9044 10.4574 31.8871 10.0752C31.8609 9.28498 31.6872 8.62491 31.3659 8.09514C31.0445 7.56531 30.6014 7.16577 30.0369 6.89651C29.4723 6.62725 28.8165 6.49257 28.0695 6.49257ZM6.73431 6.62297C6.63887 6.62302 6.5607 6.65337 6.49995 6.71417C6.43921 6.77491 6.40881 6.85297 6.40881 6.94846V15.4174C6.40886 15.5128 6.43921 15.5909 6.49995 15.6517C6.56075 15.7125 6.63469 15.7429 6.72155 15.7429H7.81579C7.91991 15.7429 8.00253 15.717 8.06333 15.6649C8.12407 15.6128 8.16767 15.5693 8.19378 15.5345L12.4671 9.56732V15.4301C12.4671 15.5169 12.4975 15.5909 12.5583 15.6517C12.6191 15.7124 12.6972 15.7429 12.7926 15.7429H13.9653C14.0522 15.7429 14.1261 15.7125 14.1869 15.6517C14.2477 15.5909 14.2781 15.5169 14.2781 15.4301V6.94846C14.2781 6.85303 14.2476 6.77491 14.1869 6.71417C14.1261 6.65337 14.0522 6.62297 13.9653 6.62297H12.8838C12.7884 6.62297 12.7103 6.64886 12.6495 6.70092C12.5887 6.74429 12.5411 6.78789 12.5064 6.83131L8.21973 12.9289V6.94846C8.21973 6.85297 8.18927 6.77491 8.12853 6.71417C8.07641 6.65337 8.00247 6.62297 7.90693 6.62297H6.73431ZM16.6202 6.62297C16.5334 6.62297 16.4594 6.65337 16.3986 6.71417C16.3379 6.77491 16.3075 6.85297 16.3074 6.94846V15.4301C16.3074 15.5256 16.3378 15.6041 16.3986 15.6649C16.4594 15.717 16.5334 15.7429 16.6202 15.7429H17.8056C17.9011 15.7429 17.9751 15.7125 18.0272 15.6517C18.088 15.5909 18.1184 15.5169 18.1184 15.4301V11.9386H19.317L21.5971 15.5213C21.6319 15.5647 21.6754 15.6128 21.7275 15.6649C21.7883 15.7169 21.8751 15.7429 21.9878 15.7429H23.3296C23.4165 15.7429 23.4864 15.7125 23.5385 15.6517C23.5992 15.5909 23.6296 15.5214 23.6297 15.4433C23.6297 15.3738 23.6165 15.3257 23.5905 15.2997L20.8937 11.0262L23.3561 7.05291C23.3908 6.99216 23.4081 6.93994 23.4081 6.89651C23.4081 6.81834 23.3817 6.75298 23.3296 6.70092C23.2862 6.64891 23.2212 6.62297 23.1345 6.62297H21.8447C21.7231 6.62297 21.6233 6.64479 21.5452 6.68816C21.4757 6.73159 21.419 6.78783 21.3755 6.85726L19.2518 10.3101H18.1184V6.94846C18.1183 6.85297 18.0879 6.77491 18.0272 6.71417C17.9751 6.65337 17.9011 6.62297 17.8056 6.62297H16.6202ZM28.0695 7.99069C28.443 7.99069 28.7732 8.06463 29.0598 8.21229C29.3464 8.35126 29.5723 8.58176 29.7373 8.90308C29.9109 9.21571 30.0062 9.62404 30.0236 10.1277C30.041 10.501 30.0496 10.8527 30.0496 11.1826C30.0496 11.504 30.041 11.8559 30.0236 12.2381C29.9975 12.9938 29.8067 13.5412 29.4505 13.88C29.0944 14.2099 28.634 14.3746 28.0695 14.3746C27.5136 14.3746 27.0574 14.21 26.7012 13.88C26.3451 13.5412 26.1543 12.9938 26.1282 12.2381C26.1195 11.856 26.1154 11.504 26.1154 11.1826C26.1154 10.8527 26.1195 10.501 26.1282 10.1277C26.1456 9.62404 26.2368 9.21571 26.4018 8.90308C26.5755 8.5817 26.8059 8.35126 27.0925 8.21229C27.3791 8.06469 27.7048 7.99069 28.0695 7.99069Z" fill="#605151"/>
</svg>
