<svg width="40" height="40" viewBox="0 0 40 40" fill="none" xmlns="http://www.w3.org/2000/svg">
<path d="M20 0C31.0457 0 40 8.95431 40 20C40 31.0457 31.0457 40 20 40C8.95431 40 0 31.0457 0 20C0 8.95431 8.95431 0 20 0ZM10 16V24H30V16H10ZM13.1279 17.5059V20.2354H14.3604V17.5059H15.498V19.0117H16.7295V17.5059H17.7725V20.2354H19.0049V17.5059H20.0479V19.0117H21.2793V17.5059H22.417V20.2354H23.6494V17.5059H28.4834V22.4941H11.5166V17.5059H13.1279ZM26.5879 19.2002C26.114 19.2002 25.7345 19.5764 25.7344 20.0469C25.7344 20.4233 26.114 20.7998 26.5879 20.7998C27.0617 20.7997 27.4404 20.4233 27.4404 20.0469C27.4403 19.5764 27.0617 19.2003 26.5879 19.2002Z" fill="#605151"/>
</svg>
