<svg width="60" height="60" viewBox="0 0 60 60" fill="none" xmlns="http://www.w3.org/2000/svg">
<path d="M30 0C46.5685 0 60 13.4315 60 30C60 46.5685 46.5685 60 30 60C13.4315 60 0 46.5685 0 30C0 13.4315 13.4315 0 30 0ZM30.0029 10C27.4686 10 24.9848 10.6955 22.832 12.0068C20.6793 13.3182 18.943 15.1931 17.8203 17.4209C16.6976 19.6487 16.2331 22.1401 16.4785 24.6133C16.7239 27.0864 17.6695 29.4432 19.209 31.417C16.9315 32.7962 14.9567 34.606 13.3984 36.7402C11.8402 38.8745 10.7293 41.291 10.1318 43.8496C9.95723 44.5875 9.95574 45.3551 10.127 46.0938C10.2982 46.8323 10.6385 47.5229 11.1211 48.1143C11.5956 48.7034 12.2003 49.1793 12.8896 49.5059C13.579 49.8324 14.335 50.0017 15.1006 50H44.8926C45.6581 50.0017 46.4142 49.8324 47.1035 49.5059C47.7929 49.1793 48.3985 48.7034 48.873 48.1143C49.357 47.524 49.6984 46.8339 49.8711 46.0957C50.0438 45.3573 50.0435 44.5898 49.8701 43.8516C49.2711 41.2938 48.16 38.8774 46.6025 36.7432C45.0451 34.609 43.0714 32.7985 40.7959 31.417C42.3355 29.4432 43.2819 27.0865 43.5273 24.6133C43.7727 22.1401 43.3073 19.6486 42.1846 17.4209C41.0619 15.1933 39.3263 13.3182 37.1738 12.0068C35.0212 10.6955 32.5372 10 30.0029 10ZM38.3418 33.8555C40.4018 34.9825 42.1978 36.5208 43.6133 38.3711C45.0288 40.2215 46.0326 42.3431 46.5596 44.5977C46.6168 44.8479 46.615 45.1076 46.5557 45.3574C46.4963 45.6074 46.3801 45.8412 46.2158 46.041C46.0588 46.2378 45.8582 46.397 45.6289 46.5059C45.3995 46.6147 45.1474 46.6703 44.8926 46.6689H15.1006C14.8458 46.6703 14.5936 46.6147 14.3643 46.5059C14.135 46.397 13.9343 46.2377 13.7773 46.041C13.6131 45.8402 13.4973 45.6053 13.4385 45.3545C13.3798 45.1039 13.3793 44.8435 13.4375 44.5928C13.9647 42.3366 14.9707 40.2141 16.3896 38.3643C17.8087 36.5144 19.6092 34.978 21.6738 33.8555C24.0513 35.6843 26.9859 36.6787 30.0078 36.6787C33.0297 36.6787 35.9643 35.6843 38.3418 33.8555ZM29.9971 13.3613C32.0124 13.3614 33.9824 13.9471 35.6582 15.0449C37.3341 16.1429 38.6408 17.7035 39.4121 19.5293C40.1834 21.3552 40.3854 23.3644 39.9922 25.3027C39.599 27.241 38.6283 29.0215 37.2031 30.4189C35.7779 31.8163 33.9621 32.7687 31.9854 33.1543C30.0084 33.5399 27.9589 33.3413 26.0967 32.585C24.2347 31.8287 22.6432 30.5483 21.5234 28.9053C20.4036 27.2621 19.8057 25.3298 19.8057 23.3535C19.8084 20.7044 20.8826 18.1644 22.793 16.291C24.7036 14.4176 27.295 13.364 29.9971 13.3613Z" fill="#605151"/>
</svg>
