<svg width="425" height="197" viewBox="0 0 425 197" fill="none" xmlns="http://www.w3.org/2000/svg">
<path d="M5.5 190.691V71.2173H185.248H230.454H418.813V190.691H230.454H185.248H5.5Z" stroke="#302B27" stroke-width="11" stroke-linejoin="round"/>
<path d="M197.088 190.153V71.7554H223.996V190.153H197.088Z" fill="#302B27" stroke="#302B27" stroke-width="11" stroke-linejoin="round"/>
<path d="M208.641 64.258C206.489 51.8798 190.272 -14.5729 161.282 11.5175C134.374 35.7347 196.263 60.4905 208.641 64.258Z" fill="#302B27" stroke="#302B27" stroke-width="11" stroke-linejoin="round"/>
<path d="M215.924 64.258C218.077 51.8798 234.293 -14.5729 263.283 11.5175C290.191 35.7347 228.302 60.4905 215.924 64.258Z" fill="#302B27" stroke="#302B27" stroke-width="11" stroke-linejoin="round"/>
<path d="M62.2445 154.633C61.7394 154.633 61.3261 154.473 61.0046 154.151C60.7291 153.83 60.5913 153.439 60.5913 152.98V136.723C59.8565 137.412 58.8692 137.986 57.6292 138.445C56.4352 138.904 55.1034 139.249 53.6338 139.479C52.2102 139.708 50.8095 139.823 49.4318 139.823C43.7832 139.823 39.5812 138.468 36.8258 135.759C34.0703 133.003 32.6926 128.939 32.6926 123.566V108.067C32.6926 107.607 32.8534 107.217 33.1748 106.896C33.4963 106.574 33.8866 106.413 34.3459 106.413H40.5456C41.0507 106.413 41.4641 106.574 41.7855 106.896C42.107 107.217 42.2677 107.607 42.2677 108.067V123.084C42.2677 125.793 42.9566 127.791 44.3343 129.077C45.712 130.363 48.0312 131.006 51.2917 131.006C52.2102 131.006 53.1976 130.937 54.2538 130.799C55.3101 130.615 56.3204 130.317 57.2848 129.903C58.2492 129.444 59.0299 128.847 59.6269 128.112C60.2698 127.378 60.5913 126.459 60.5913 125.357V108.067C60.5913 107.607 60.7291 107.217 61.0046 106.896C61.3261 106.574 61.7394 106.413 62.2445 106.413H68.4442C68.9494 106.413 69.3627 106.574 69.6842 106.896C70.0057 107.217 70.1664 107.607 70.1664 108.067V152.98C70.1664 153.439 70.0057 153.83 69.6842 154.151C69.3627 154.473 68.9494 154.633 68.4442 154.633H62.2445Z" fill="#302B27"/>
<path d="M82.7574 154.633C82.2981 154.633 81.9078 154.473 81.5863 154.151C81.2649 153.83 81.1041 153.416 81.1041 152.911V108.136C81.1041 107.63 81.2649 107.217 81.5863 106.896C81.9078 106.574 82.3211 106.413 82.8263 106.413H89.026C89.5311 106.413 89.9215 106.574 90.197 106.896C90.5185 107.217 90.6792 107.63 90.6792 108.136V139.754L113.343 107.516C113.526 107.286 113.779 107.056 114.1 106.827C114.422 106.551 114.835 106.413 115.34 106.413H121.058C121.517 106.413 121.907 106.574 122.229 106.896C122.55 107.217 122.711 107.63 122.711 108.136V152.98C122.711 153.439 122.55 153.83 122.229 154.151C121.907 154.473 121.517 154.633 121.058 154.633H114.858C114.353 154.633 113.94 154.473 113.618 154.151C113.297 153.83 113.136 153.439 113.136 152.98V121.982L90.5414 153.531C90.4037 153.715 90.1741 153.944 89.8526 154.22C89.5311 154.496 89.0949 154.633 88.5438 154.633H82.7574Z" fill="#302B27"/>
<path d="M145.703 154.633C145.243 154.633 144.853 154.473 144.532 154.151C144.21 153.83 144.049 153.439 144.049 152.98V114.886H131.306C130.846 114.886 130.456 114.726 130.135 114.404C129.813 114.083 129.652 113.692 129.652 113.233V108.136C129.652 107.63 129.813 107.217 130.135 106.896C130.456 106.574 130.846 106.413 131.306 106.413H166.437C166.942 106.413 167.356 106.574 167.677 106.896C167.999 107.217 168.159 107.63 168.159 108.136V113.233C168.159 113.692 167.999 114.083 167.677 114.404C167.356 114.726 166.942 114.886 166.437 114.886H153.762V152.98C153.762 153.439 153.602 153.83 153.28 154.151C152.959 154.473 152.545 154.633 152.04 154.633H145.703Z" fill="#302B27"/>
<path d="M257.931 154.633C257.472 154.633 257.082 154.496 256.76 154.22C256.439 153.899 256.278 153.485 256.278 152.98V108.136C256.278 107.63 256.439 107.217 256.76 106.896C257.082 106.574 257.472 106.413 257.931 106.413H294.027C294.532 106.413 294.946 106.574 295.267 106.896C295.589 107.217 295.749 107.63 295.749 108.136V152.98C295.749 153.439 295.589 153.83 295.267 154.151C294.946 154.473 294.532 154.633 294.027 154.633H287.828C287.368 154.633 286.978 154.473 286.657 154.151C286.335 153.83 286.174 153.439 286.174 152.98V115.024H265.853V152.98C265.853 153.439 265.692 153.83 265.371 154.151C265.095 154.473 264.705 154.633 264.2 154.633H257.931Z" fill="#302B27"/>
<path d="M303.5 154.633C303.133 154.633 302.788 154.496 302.467 154.22C302.191 153.944 302.054 153.6 302.054 153.187C302.054 153.003 302.099 152.796 302.191 152.567L318.793 108.136C318.931 107.676 319.183 107.286 319.551 106.965C319.964 106.597 320.515 106.413 321.204 106.413H328.712C329.401 106.413 329.929 106.597 330.297 106.965C330.664 107.286 330.94 107.676 331.123 108.136L347.725 152.567C347.771 152.796 347.794 153.003 347.794 153.187C347.794 153.6 347.656 153.944 347.38 154.22C347.105 154.496 346.783 154.633 346.416 154.633H340.423C339.78 154.633 339.298 154.496 338.976 154.22C338.701 153.899 338.517 153.6 338.425 153.325L335.188 144.92H314.729L311.491 153.325C311.399 153.6 311.192 153.899 310.871 154.22C310.595 154.496 310.136 154.633 309.493 154.633H303.5ZM317.14 136.999H332.777L324.924 115.713L317.14 136.999Z" fill="#302B27"/>
<path d="M355.878 154.633C355.419 154.633 355.028 154.496 354.707 154.22C354.385 153.899 354.225 153.485 354.225 152.98V108.136C354.225 107.63 354.385 107.217 354.707 106.896C355.028 106.574 355.419 106.413 355.878 106.413H362.147C362.652 106.413 363.042 106.574 363.318 106.896C363.639 107.217 363.8 107.63 363.8 108.136V125.908H369.793L381.021 107.653C381.251 107.286 381.549 106.987 381.917 106.758C382.33 106.528 382.858 106.413 383.501 106.413H390.321C390.78 106.413 391.124 106.551 391.354 106.827C391.63 107.102 391.767 107.447 391.767 107.86C391.767 108.09 391.675 108.365 391.492 108.687L378.472 129.697L392.732 152.291C392.869 152.429 392.938 152.682 392.938 153.049C392.938 153.462 392.778 153.83 392.456 154.151C392.181 154.473 391.813 154.633 391.354 154.633H384.259C383.662 154.633 383.203 154.496 382.881 154.22C382.606 153.944 382.376 153.692 382.192 153.462L370.137 134.519H363.8V152.98C363.8 153.439 363.639 153.83 363.318 154.151C363.042 154.473 362.652 154.633 362.147 154.633H355.878Z" fill="#302B27"/>
<path d="M204.622 165.397C199.025 165.397 194.146 164.536 189.984 162.814C185.894 161.02 182.701 158.472 180.405 155.172C178.18 151.871 177.068 147.924 177.068 143.332C177.068 140.246 177.678 137.484 178.898 135.044C180.118 132.604 181.804 130.38 183.957 128.371C186.181 126.362 188.729 124.532 191.599 122.881C188.872 119.868 186.899 117.105 185.679 114.594C184.531 112.01 183.957 109.427 183.957 106.844C183.957 103.471 184.818 100.386 186.54 97.5875C188.262 94.7173 190.845 92.3852 194.29 90.5913C197.806 88.7974 202.147 87.9005 207.313 87.9005C212.121 87.9005 216.175 88.7615 219.476 90.4837C222.777 92.2058 225.288 94.502 227.01 97.3722C228.804 100.171 229.701 103.22 229.701 106.521C229.701 109.391 229.055 111.975 227.764 114.271C226.544 116.567 224.786 118.684 222.49 120.621C220.265 122.487 217.682 124.281 214.74 126.003L227.548 138.811C228.051 137.878 228.84 136.407 229.916 134.398C230.993 132.389 232.033 129.77 233.038 126.541C233.253 125.465 234.006 124.926 235.298 124.926H246.169C246.815 124.926 247.317 125.142 247.676 125.572C248.106 125.931 248.322 126.433 248.322 127.079C248.25 128.371 247.891 129.949 247.245 131.815C246.6 133.609 245.739 135.546 244.662 137.627C243.586 139.636 242.402 141.61 241.11 143.547C239.819 145.413 238.563 147.099 237.343 148.606L249.29 160.768C249.864 161.343 250.152 161.881 250.152 162.383C250.152 162.957 249.972 163.423 249.613 163.782C249.255 164.141 248.752 164.32 248.106 164.32H233.468C232.751 164.32 232.177 164.213 231.746 163.997C231.316 163.71 230.957 163.459 230.67 163.244L225.826 158.616C222.884 160.984 219.655 162.706 216.139 163.782C212.695 164.859 208.856 165.397 204.622 165.397ZM204.622 151.727C206.703 151.727 208.677 151.404 210.542 150.759C212.48 150.113 214.202 149.108 215.709 147.745L201.286 133.43C199.42 134.434 197.77 135.726 196.335 137.304C194.971 138.811 194.29 140.605 194.29 142.686C194.29 144.552 194.792 146.166 195.796 147.53C196.801 148.893 198.093 149.933 199.671 150.651C201.25 151.368 202.9 151.727 204.622 151.727ZM205.591 116.1C207.242 115.311 208.713 114.486 210.004 113.625C211.296 112.692 212.336 111.688 213.126 110.611C213.915 109.535 214.309 108.351 214.309 107.059C214.309 105.122 213.628 103.579 212.264 102.431C210.973 101.211 209.322 100.601 207.313 100.601C205.448 100.601 203.797 101.175 202.362 102.323C200.999 103.471 200.317 105.086 200.317 107.167C200.317 108.028 200.461 108.889 200.748 109.75C201.106 110.611 201.68 111.58 202.47 112.656C203.259 113.661 204.3 114.809 205.591 116.1Z" fill="#E6B35C"/>
</svg>
