<svg width="215" height="100" viewBox="0 0 215 100" fill="none" xmlns="http://www.w3.org/2000/svg">
<path d="M3 96.0412V36.0169H93.8932H116.753H212V96.0412H116.753H93.8932H3Z" stroke="#D9D0C9" stroke-width="6" stroke-linejoin="round"/>
<path d="M99.8799 95.7708V36.2872H113.487V95.7708H99.8799Z" fill="#D9D0C9" stroke="#D9D0C9" stroke-width="6" stroke-linejoin="round"/>
<path d="M105.722 32.5205C104.634 26.3016 96.4336 -7.08478 81.7744 6.02324C68.1676 18.1902 99.4632 30.6276 105.722 32.5205Z" fill="#D9D0C9" stroke="#D9D0C9" stroke-width="6" stroke-linejoin="round"/>
<path d="M109.405 32.5205C110.493 26.3016 118.693 -7.08478 133.353 6.02324C146.959 18.1902 115.664 30.6276 109.405 32.5205Z" fill="#D9D0C9" stroke="#D9D0C9" stroke-width="6" stroke-linejoin="round"/>
<path d="M31.694 77.9257C31.4385 77.9257 31.2295 77.8449 31.067 77.6834C30.9277 77.5219 30.858 77.3258 30.858 77.0951V68.9274C30.4864 69.2735 29.9872 69.5619 29.3602 69.7927C28.7564 70.0234 28.0829 70.1964 27.3398 70.3118C26.6199 70.4272 25.9117 70.4848 25.215 70.4848C22.3587 70.4848 20.2338 69.8042 18.8405 68.4429C17.4472 67.0586 16.7505 65.0167 16.7505 62.3172V54.5303C16.7505 54.2995 16.8318 54.1034 16.9943 53.9419C17.1569 53.7804 17.3543 53.6997 17.5865 53.6997H20.7215C20.9769 53.6997 21.1859 53.7804 21.3485 53.9419C21.511 54.1034 21.5923 54.2995 21.5923 54.5303V62.0749C21.5923 63.4362 21.9407 64.4399 22.6373 65.0859C23.334 65.7319 24.5067 66.0549 26.1555 66.0549C26.6199 66.0549 27.1192 66.0203 27.6533 65.9511C28.1874 65.8588 28.6983 65.7088 29.186 65.5012C29.6737 65.2705 30.0684 64.9705 30.3703 64.6014C30.6954 64.2322 30.858 63.7708 30.858 63.217V54.5303C30.858 54.2995 30.9277 54.1034 31.067 53.9419C31.2295 53.7804 31.4385 53.6997 31.694 53.6997H34.829C35.0844 53.6997 35.2934 53.7804 35.456 53.9419C35.6185 54.1034 35.6998 54.2995 35.6998 54.5303V77.0951C35.6998 77.3258 35.6185 77.5219 35.456 77.6834C35.2934 77.8449 35.0844 77.9257 34.829 77.9257H31.694Z" fill="#D9D0C9"/>
<path d="M42.0667 77.9257C41.8345 77.9257 41.6371 77.8449 41.4745 77.6834C41.312 77.5219 41.2307 77.3143 41.2307 77.0605V54.5649C41.2307 54.3111 41.312 54.1034 41.4745 53.9419C41.6371 53.7804 41.8461 53.6997 42.1015 53.6997H45.2365C45.492 53.6997 45.6894 53.7804 45.8287 53.9419C45.9913 54.1034 46.0725 54.3111 46.0725 54.5649V70.4502L57.5327 54.2534C57.6256 54.138 57.7533 54.0227 57.9159 53.9073C58.0784 53.7689 58.2874 53.6997 58.5429 53.6997H61.434C61.6663 53.6997 61.8636 53.7804 62.0262 53.9419C62.1888 54.1034 62.27 54.3111 62.27 54.5649V77.0951C62.27 77.3258 62.1888 77.5219 62.0262 77.6834C61.8636 77.8449 61.6663 77.9257 61.434 77.9257H58.299C58.0436 77.9257 57.8346 77.8449 57.672 77.6834C57.5095 77.5219 57.4282 77.3258 57.4282 77.0951V61.5212L46.0029 77.372C45.9332 77.4642 45.8171 77.5796 45.6545 77.718C45.492 77.8565 45.2714 77.9257 44.9927 77.9257H42.0667Z" fill="#D9D0C9"/>
<path d="M73.8962 77.9257C73.664 77.9257 73.4666 77.8449 73.304 77.6834C73.1415 77.5219 73.0602 77.3258 73.0602 77.0951V57.9565H66.616C66.3838 57.9565 66.1864 57.8758 66.0239 57.7143C65.8613 57.5527 65.78 57.3566 65.78 57.1259V54.5649C65.78 54.3111 65.8613 54.1034 66.0239 53.9419C66.1864 53.7804 66.3838 53.6997 66.616 53.6997H84.381C84.6365 53.6997 84.8455 53.7804 85.008 53.9419C85.1706 54.1034 85.2519 54.3111 85.2519 54.5649V57.1259C85.2519 57.3566 85.1706 57.5527 85.008 57.7143C84.8455 57.8758 84.6365 57.9565 84.381 57.9565H77.9717V77.0951C77.9717 77.3258 77.8904 77.5219 77.7279 77.6834C77.5653 77.8449 77.3563 77.9257 77.1009 77.9257H73.8962Z" fill="#D9D0C9"/>
<path d="M130.647 77.9257C130.415 77.9257 130.217 77.8565 130.055 77.718C129.892 77.5565 129.811 77.3489 129.811 77.0951V54.5649C129.811 54.3111 129.892 54.1034 130.055 53.9419C130.217 53.7804 130.415 53.6997 130.647 53.6997H148.899C149.155 53.6997 149.364 53.7804 149.526 53.9419C149.689 54.1034 149.77 54.3111 149.77 54.5649V77.0951C149.77 77.3258 149.689 77.5219 149.526 77.6834C149.364 77.8449 149.155 77.9257 148.899 77.9257H145.764C145.532 77.9257 145.335 77.8449 145.172 77.6834C145.01 77.5219 144.928 77.3258 144.928 77.0951V58.0257H134.653V77.0951C134.653 77.3258 134.571 77.5219 134.409 77.6834C134.269 77.8449 134.072 77.9257 133.817 77.9257H130.647Z" fill="#D9D0C9"/>
<path d="M153.69 77.9257C153.504 77.9257 153.33 77.8565 153.167 77.718C153.028 77.5796 152.958 77.4066 152.958 77.1989C152.958 77.1066 152.981 77.0028 153.028 76.8874L161.423 54.5649C161.492 54.3341 161.62 54.138 161.806 53.9765C162.015 53.7919 162.293 53.6997 162.642 53.6997H166.439C166.787 53.6997 167.054 53.7919 167.24 53.9765C167.426 54.138 167.565 54.3341 167.658 54.5649L176.053 76.8874C176.076 77.0028 176.087 77.1066 176.087 77.1989C176.087 77.4066 176.018 77.5796 175.878 77.718C175.739 77.8565 175.577 77.9257 175.391 77.9257H172.36C172.035 77.9257 171.791 77.8565 171.629 77.718C171.489 77.5565 171.397 77.4066 171.35 77.2681L169.713 73.0459H159.367L157.73 77.2681C157.684 77.4066 157.579 77.5565 157.417 77.718C157.277 77.8565 157.045 77.9257 156.72 77.9257H153.69ZM160.587 69.0659H168.494L164.523 58.3718L160.587 69.0659Z" fill="#D9D0C9"/>
<path d="M180.175 77.9257C179.943 77.9257 179.746 77.8565 179.583 77.718C179.421 77.5565 179.339 77.3489 179.339 77.0951V54.5649C179.339 54.3111 179.421 54.1034 179.583 53.9419C179.746 53.7804 179.943 53.6997 180.175 53.6997H183.345C183.601 53.6997 183.798 53.7804 183.937 53.9419C184.1 54.1034 184.181 54.3111 184.181 54.5649V63.4939H187.212L192.89 54.3226C193.006 54.138 193.157 53.9881 193.342 53.8727C193.551 53.7573 193.819 53.6997 194.144 53.6997H197.592C197.824 53.6997 197.998 53.7689 198.115 53.9073C198.254 54.0457 198.324 54.2188 198.324 54.4264C198.324 54.5418 198.277 54.6802 198.184 54.8417L191.601 65.3974L198.811 76.749C198.881 76.8182 198.916 76.9451 198.916 77.1297C198.916 77.3373 198.835 77.5219 198.672 77.6834C198.533 77.8449 198.347 77.9257 198.115 77.9257H194.527C194.225 77.9257 193.993 77.8565 193.83 77.718C193.691 77.5796 193.575 77.4527 193.482 77.3373L187.386 67.82H184.181V77.0951C184.181 77.3258 184.1 77.5219 183.937 77.6834C183.798 77.8449 183.601 77.9257 183.345 77.9257H180.175Z" fill="#D9D0C9"/>
<path d="M103.69 83.3333C100.86 83.3333 98.3926 82.9007 96.2881 82.0355C94.2198 81.1342 92.6052 79.8544 91.4441 78.1961C90.3192 76.5377 89.7568 74.555 89.7568 72.2477C89.7568 70.6975 90.0652 69.3096 90.6821 68.0839C91.2989 66.8581 92.1516 65.7406 93.2401 64.7312C94.365 63.7217 95.6531 62.8024 97.1045 61.9733C95.7257 60.4592 94.7278 59.0712 94.111 57.8094C93.5304 56.5116 93.2401 55.2138 93.2401 53.916C93.2401 52.2216 93.6756 50.6714 94.5464 49.2654C95.4172 47.8234 96.7235 46.6518 98.4651 45.7505C100.243 44.8492 102.438 44.3986 105.051 44.3986C107.482 44.3986 109.532 44.8312 111.201 45.6964C112.87 46.5616 114.14 47.7152 115.011 49.1573C115.918 50.5633 116.372 52.0954 116.372 53.7537C116.372 55.1958 116.045 56.4936 115.392 57.6472C114.775 58.8008 113.886 59.8643 112.725 60.8377C111.6 61.775 110.294 62.6763 108.806 63.5415L115.283 69.9765C115.537 69.5079 115.936 68.7688 116.481 67.7594C117.025 66.75 117.551 65.4341 118.059 63.8119C118.168 63.2711 118.549 63.0007 119.202 63.0007H124.699C125.026 63.0007 125.28 63.1089 125.461 63.3252C125.679 63.5054 125.788 63.7578 125.788 64.0822C125.751 64.7312 125.57 65.5243 125.243 66.4616C124.917 67.3629 124.481 68.3362 123.937 69.3817C123.393 70.3911 122.794 71.3825 122.141 72.3559C121.488 73.2932 120.853 74.1404 120.236 74.8974L126.277 81.008C126.568 81.2964 126.713 81.5668 126.713 81.8192C126.713 82.1076 126.622 82.3419 126.441 82.5221C126.259 82.7024 126.005 82.7925 125.679 82.7925H118.277C117.914 82.7925 117.623 82.7385 117.406 82.6303C117.188 82.4861 117.007 82.3599 116.862 82.2518L114.412 79.9265C112.925 81.1162 111.292 81.9814 109.514 82.5221C107.772 83.0629 105.831 83.3333 103.69 83.3333ZM103.69 76.4656C104.742 76.4656 105.74 76.3034 106.684 75.979C107.663 75.6545 108.534 75.1498 109.296 74.4648L102.003 67.2727C101.06 67.7774 100.225 68.4263 99.4993 69.2195C98.8099 69.9765 98.4651 70.8778 98.4651 71.9233C98.4651 72.8606 98.7191 73.6717 99.2271 74.3567C99.7351 75.0416 100.388 75.5644 101.186 75.9249C101.985 76.2854 102.819 76.4656 103.69 76.4656ZM104.18 58.5665C105.015 58.1699 105.758 57.7554 106.412 57.3227C107.065 56.8541 107.591 56.3494 107.99 55.8086C108.389 55.2679 108.589 54.673 108.589 54.0241C108.589 53.0507 108.244 52.2757 107.554 51.6988C106.901 51.086 106.067 50.7796 105.051 50.7796C104.107 50.7796 103.273 51.068 102.547 51.6448C101.858 52.2216 101.513 53.0327 101.513 54.0782C101.513 54.5108 101.586 54.9434 101.731 55.376C101.912 55.8086 102.202 56.2953 102.602 56.8361C103.001 57.3408 103.527 57.9176 104.18 58.5665Z" fill="#2C4C61"/>
</svg>
