<svg width="40" height="40" viewBox="0 0 40 40" fill="none" xmlns="http://www.w3.org/2000/svg">
<path d="M20 0C31.0457 0 40 8.95431 40 20C40 31.0457 31.0457 40 20 40C8.95431 40 0 31.0457 0 20C0 8.95431 8.95431 0 20 0ZM18.0703 10.0254C13.4298 10.9333 10 15.1708 10 19.9121C10.0001 25.4604 14.5396 29.9999 20.0879 30C24.8292 30 29.0667 26.5702 29.9746 21.9297C30.0755 21.4253 29.8732 21.0221 29.4697 20.8203C29.0663 20.6186 28.5624 20.7191 28.2598 21.0215C27.0493 22.232 25.334 22.9384 23.6191 22.9385C19.9875 22.9385 17.0615 20.0125 17.0615 16.3809C17.0616 14.666 17.768 12.9507 18.9785 11.7402C19.2809 11.4376 19.3814 10.9337 19.1797 10.5303C18.9779 10.1268 18.4738 9.92451 18.0703 10.0254ZM15.6494 13.1533C15.246 14.162 15.044 15.2714 15.0439 16.3809C15.0439 21.1222 18.8778 24.9561 23.6191 24.9561C24.7286 24.956 25.838 24.754 26.8467 24.3506C25.3335 26.5699 22.9125 27.9824 20.0879 27.9824C15.6493 27.9823 12.0177 24.3507 12.0176 19.9121C12.0176 17.0875 13.4301 14.6665 15.6494 13.1533Z" fill="#605151"/>
</svg>
