<svg width="40" height="40" viewBox="0 0 40 40" fill="none" xmlns="http://www.w3.org/2000/svg">
<path d="M20 0C31.0457 0 40 8.95431 40 20C40 31.0457 31.0457 40 20 40C8.95431 40 0 31.0457 0 20C0 8.95431 8.95431 0 20 0ZM20.001 7C18.1804 7 16.97 8.44841 16.5547 9.84082C16.5521 9.8431 16.5503 9.84595 16.5479 9.84766C15.5112 10.2819 14.2877 10.9759 13.3311 12.2471C12.3662 13.5292 11.7443 15.3035 11.7441 17.7695C11.7428 20.2134 11.488 21.5461 11.1182 22.4561C10.7468 23.3697 10.2446 23.9224 9.47559 24.8789C8.30919 26.3294 9.3984 28.3848 11.2363 28.3848H15.3691C15.3888 29.5963 15.8697 30.7572 16.7188 31.6201C17.5864 32.5018 18.7669 33 20.001 33C21.2348 32.9999 22.4147 32.5016 23.2822 31.6201C24.1313 30.7572 24.6122 29.5963 24.6318 28.3848H28.7715C30.5555 28.3845 31.6158 26.4455 30.6289 25.0156L30.5264 24.8789C29.7571 23.9221 29.2539 23.3697 28.8828 22.4561C28.5134 21.5463 28.2598 20.2139 28.2598 17.7705C28.2598 15.306 27.6368 13.5316 26.6719 12.249C25.7162 10.9787 24.4948 10.2838 23.459 9.84961C23.4557 9.84728 23.4521 9.84363 23.4482 9.83984C23.0303 8.44983 21.8224 7.00016 20.001 7ZM22.6299 28.3848C22.6105 29.0756 22.3351 29.7312 21.8574 30.2168C21.3624 30.7199 20.694 30.9999 20.001 31C19.3078 31 18.6397 30.72 18.1445 30.2168C17.6667 29.7311 17.3904 29.0757 17.3711 28.3848H22.6299ZM20.001 9C20.6356 9.00017 21.2825 9.54443 21.541 10.4385V10.4404C21.713 11.0294 22.1876 11.4865 22.6807 11.6924V11.6914C23.5367 12.0496 24.4086 12.5664 25.0742 13.4512C25.7327 14.3265 26.2598 15.6573 26.2598 17.7705C26.2598 20.3255 26.5207 21.9542 27.0303 23.209C27.5383 24.4598 28.2792 25.2754 28.9678 26.1318C28.9927 26.1629 28.9985 26.1863 29 26.2031C29.0018 26.2238 28.9976 26.2509 28.9834 26.2793C28.9695 26.307 28.9479 26.331 28.9199 26.3486C28.8948 26.3644 28.8498 26.3847 28.7715 26.3848H11.2363C11.1546 26.3848 11.1066 26.3641 11.0801 26.3477C11.051 26.3295 11.0291 26.3051 11.0156 26.2783C11.0019 26.251 10.9983 26.2248 11 26.2051C11.0014 26.1891 11.0069 26.1646 11.0332 26.1318H11.0342C11.7227 25.2755 12.4634 24.4596 12.9717 23.209C13.4179 22.1111 13.6735 20.7271 13.7314 18.6865L13.7441 17.7705C13.7441 15.6544 14.2717 14.3245 14.9297 13.4502C15.5944 12.5669 16.4647 12.0504 17.3223 11.6914L17.3232 11.6924C17.8107 11.4889 18.2908 11.0387 18.4639 10.4395V10.4365C18.7191 9.5444 19.3664 9 20.001 9Z" fill="#605151"/>
</svg>
