<svg width="40" height="40" viewBox="0 0 40 40" fill="none" xmlns="http://www.w3.org/2000/svg">
<path d="M20 0C31.0457 0 40 8.95431 40 20C40 31.0457 31.0457 40 20 40C8.95431 40 0 31.0457 0 20C0 8.95431 8.95431 0 20 0ZM20.2354 6.11719C13.7407 6.11722 8.4707 11.4122 8.4707 17.9365C8.47094 30.2224 19.7524 34.2376 19.874 34.292C19.9945 34.3323 20.1049 34.3525 20.2354 34.3525C20.3558 34.3525 20.4765 34.3323 20.5869 34.292C20.7238 34.2458 31.9998 30.2296 32 17.9365C32 11.4122 26.72 6.11719 20.2354 6.11719ZM20.2354 11.623C23.6684 11.623 26.459 14.437 26.459 17.8857C26.459 21.3244 23.6684 24.1377 20.2354 24.1377C16.7923 24.1377 14.002 21.3244 14.002 17.8857C14.002 14.4269 16.8023 11.6231 20.2354 11.623Z" fill="#605151"/>
</svg>
