<svg width="40" height="40" viewBox="0 0 40 40" fill="none" xmlns="http://www.w3.org/2000/svg">
<path d="M20 0C31.0457 0 40 8.95431 40 20C40 31.0457 31.0457 40 20 40C8.95431 40 0 31.0457 0 20C0 8.95431 8.95431 0 20 0ZM18.9219 10C18.6742 10 18.4635 10.0871 18.29 10.2617C18.1167 10.4364 18.0294 10.6489 18.0293 10.8984V18.0146H10.8926C10.6447 18.0146 10.4332 18.1026 10.2598 18.2773C10.0865 18.4271 10 18.6396 10 18.9141V20.8984C10 21.1479 10.0866 21.3605 10.2598 21.5352C10.4332 21.7099 10.6447 21.7979 10.8926 21.7979H18.0293V29.1016C18.0294 29.3511 18.1167 29.5636 18.29 29.7383C18.4635 29.9129 18.6742 30 18.9219 30H21.0781C21.3506 30 21.5613 29.9128 21.71 29.7383C21.8833 29.5636 21.9706 29.3511 21.9707 29.1016V21.7979H29.1074C29.3553 21.7979 29.5668 21.7099 29.7402 21.5352C29.9134 21.3605 30 21.1479 30 20.8984V18.9141C30 18.6396 29.9135 18.4271 29.7402 18.2773C29.5668 18.1026 29.3553 18.0146 29.1074 18.0146H21.9707V10.8984C21.9706 10.6489 21.8833 10.4364 21.71 10.2617C21.5613 10.0871 21.3506 10 21.0781 10H18.9219Z" fill="#605151"/>
</svg>
