<svg width="60" height="60" viewBox="0 0 60 60" fill="none" xmlns="http://www.w3.org/2000/svg">
<path d="M30 0C46.5685 0 60 13.4315 60 30C60 46.5685 46.5685 60 30 60C13.4315 60 0 46.5685 0 30C0 13.4315 13.4315 0 30 0ZM25.5479 10C16.9618 10.0002 10 16.9617 10 25.5469C10.0002 34.1319 16.9619 41.0925 25.5479 41.0928C28.8494 41.0928 31.9118 40.0634 34.4287 38.3096L34.4307 38.3076L45.9619 49.8379C46.1759 50.0518 46.5168 50.0573 46.7363 49.8379L49.8438 46.7295C50.0575 46.5155 50.0466 46.1609 49.8418 45.9561L38.3125 34.4277C40.0665 31.9093 41.0966 28.8479 41.0967 25.5469C41.0967 16.9615 34.1342 10 25.5479 10ZM25.5479 13.6582C32.1147 13.6582 37.4385 18.9808 37.4385 25.5469C37.4383 32.1128 32.1146 37.4346 25.5479 37.4346C18.9813 37.4344 13.6584 32.1127 13.6582 25.5469C13.6582 18.9809 18.9812 13.6584 25.5479 13.6582Z" fill="#605151"/>
</svg>
