<svg width="40" height="40" viewBox="0 0 40 40" fill="none" xmlns="http://www.w3.org/2000/svg">
<path d="M20 0C31.0457 0 40 8.95431 40 20C40 31.0457 31.0457 40 20 40C8.95431 40 0 31.0457 0 20C0 8.95431 8.95431 0 20 0ZM22.3496 10.8193C19.3592 9.11136 16.9551 10.6045 16.9551 10.6045C16.9781 10.6131 21.0504 12.1315 23.3018 14.5713C20.253 12.0485 17.0044 11.0819 14.3242 13.709C11.2682 16.7041 8.06033 25.2451 11.4561 28.5732C14.7983 31.849 23.294 28.8531 26.4727 25.9014L26.6201 25.7607C29.5667 22.872 28.0806 19.31 24.9268 16.0762C27.6395 18.0691 29.5406 22.0546 29.5518 22.0781C29.5645 22.0547 30.8842 19.6044 28.9346 16.8203C27.3774 14.5962 25.1019 15.0345 24.2344 15.3076C24.4482 14.4432 24.7317 12.1807 22.3496 10.8193ZM15.0312 14.3623C16.3026 13.1161 17.6415 12.8742 19.0586 13.2461C20.5654 13.6417 22.2151 14.7543 23.8643 16.3711C25.5106 17.9846 26.6537 19.6068 27.0615 21.0996C27.4496 22.5207 27.1882 23.8584 25.9131 25.1084C24.5423 26.4524 21.7757 27.918 18.915 28.6318C17.4973 28.9856 16.1164 29.1395 14.9248 29.0273C13.7353 28.9154 12.8009 28.5469 12.1621 27.9209C11.5197 27.2913 11.1384 26.3631 11.0225 25.1807C10.9068 24.0001 11.0645 22.6364 11.4268 21.2412C12.1578 18.4258 13.6583 15.7079 15.0312 14.3623ZM14.5078 25.5811C14.2853 25.3635 13.9255 25.3633 13.7031 25.5811C13.4807 25.7991 12.7459 26.8732 12.9678 27.0918C13.1909 27.3091 14.2853 26.5882 14.5078 26.3701C14.7302 26.1526 14.7303 25.7991 14.5078 25.5811ZM19.5449 24.5498C19.3225 24.3319 18.9627 24.3321 18.7402 24.5498C18.5178 24.7679 17.7818 25.8421 18.0039 26.0605C18.2126 26.2648 19.1885 25.644 19.4932 25.3857L19.5449 25.3389C19.7666 25.1207 19.7674 24.7678 19.5449 24.5498ZM25.2354 22.877C25.0128 22.6591 24.6531 22.659 24.4307 22.877C24.208 23.0954 23.4731 24.1679 23.6943 24.3867C23.9029 24.5912 24.8789 23.9702 25.1836 23.7119L25.2354 23.665C25.457 23.447 25.4575 23.095 25.2354 22.877ZM15.6484 20.002C15.4259 19.7839 15.0662 19.7839 14.8438 20.002C14.6212 20.2202 13.8856 21.2932 14.1074 21.5117C14.3162 21.716 15.2922 21.0951 15.5967 20.8369L15.6484 20.791C15.8703 20.5736 15.8706 20.2201 15.6484 20.002ZM21.915 18.3447C21.6926 18.1269 21.3328 18.1268 21.1104 18.3447C20.8875 18.5635 20.1531 19.6361 20.375 19.8545C20.5836 20.059 21.5599 19.4378 21.8643 19.1797L21.915 19.1338C22.1369 18.9157 22.1375 18.5628 21.915 18.3447ZM26.4521 16.1123C27.0157 16.2562 27.6086 16.6008 28.126 17.3398L28.2012 17.4512C28.5843 18.0258 28.8025 18.5755 28.916 19.0762C28.8632 18.9975 28.8091 18.9179 28.7539 18.8379C28.1509 17.9646 27.3719 16.9696 26.4521 16.1123ZM17.2324 15.1025C17.0099 14.8845 16.6502 14.8845 16.4277 15.1025C16.2052 15.3207 15.4692 16.394 15.6914 16.6123C15.9004 16.8163 16.8763 16.1956 17.1807 15.9375L17.2324 15.8906C17.4543 15.6727 17.4542 15.3206 17.2324 15.1025ZM20.0498 10.9941C20.5909 11.0749 21.1963 11.265 21.8438 11.6348L21.9512 11.6982C22.648 12.124 23.0207 12.6351 23.2119 13.1396C22.2936 12.3363 21.2575 11.6712 20.3477 11.1592C20.2473 11.1027 20.148 11.0475 20.0498 10.9941Z" fill="#605151"/>
</svg>
