<svg width="40" height="40" viewBox="0 0 40 40" fill="none" xmlns="http://www.w3.org/2000/svg">
<path d="M20 0C31.0457 0 40 8.95431 40 20C40 31.0457 31.0457 40 20 40C8.95431 40 0 31.0457 0 20C0 8.95431 8.95431 0 20 0ZM13.418 8.4707C13.117 8.4707 12.7239 8.52614 12.2393 8.6377C11.7547 8.74903 11.3733 8.8656 11.0947 8.98828C10.5377 9.22211 9.94722 9.90232 9.32324 11.0273C8.75516 12.0742 8.47079 13.1101 8.4707 14.1348C8.4707 14.4353 8.49031 14.7284 8.5293 15.0127C8.56829 15.2967 8.63791 15.6171 8.73828 15.9736C8.83847 16.33 8.91937 16.5952 8.98047 16.7676C9.04167 16.9402 9.15622 17.249 9.32324 17.6943C9.49018 18.14 9.5906 18.4134 9.62402 18.5137C10.0139 19.6053 10.4761 20.5798 11.0107 21.4375C11.8905 22.8634 13.0906 24.3377 14.6113 25.8584C16.1321 27.379 17.6061 28.5789 19.0322 29.459C19.8901 29.9936 20.8653 30.4565 21.957 30.8467C22.0576 30.88 22.3303 30.9801 22.7754 31.1475C23.2211 31.3145 23.5306 31.429 23.7031 31.4902C23.8758 31.5516 24.1411 31.6321 24.4971 31.7324C24.8538 31.8327 25.1741 31.9021 25.458 31.9414C25.7421 31.9798 26.0345 32 26.335 32C27.3598 32 28.3961 31.7155 29.4434 31.1475C30.5682 30.5238 31.2474 29.9334 31.4814 29.376C31.6045 29.0977 31.7216 28.7162 31.833 28.2314C31.9447 27.7471 32 27.3546 32 27.0537C32.0004 26.8973 31.9838 26.7798 31.9502 26.7012C31.8833 26.5006 31.4594 26.2058 30.6797 25.8164C30.4684 25.6936 30.1678 25.5261 29.7783 25.3145C29.3884 25.1027 29.0341 24.9078 28.7168 24.7295C28.3988 24.5513 28.1006 24.3788 27.8223 24.2119C27.7776 24.1784 27.6389 24.0806 27.4053 23.9189C27.1711 23.7575 26.9734 23.6377 26.8115 23.5596C26.65 23.4819 26.491 23.4434 26.335 23.4434C26.1122 23.4434 25.834 23.6018 25.5 23.9189C25.166 24.2365 24.8594 24.5817 24.5811 24.9551C24.3026 25.3284 24.0069 25.6737 23.6953 25.9912C23.3833 26.3088 23.127 26.4677 22.9268 26.4678C22.8263 26.4678 22.7008 26.44 22.5508 26.3848C22.4006 26.3291 22.2855 26.2806 22.207 26.2422C22.1292 26.2028 21.9957 26.1249 21.8066 26.0078C21.6178 25.8914 21.5121 25.828 21.4893 25.8164C19.963 24.9695 18.6535 23.9996 17.5615 22.9082C16.4701 21.8163 15.5009 20.5076 14.6543 18.9814C14.6432 18.9592 14.5787 18.8532 14.4619 18.6641C14.3449 18.4746 14.2665 18.3409 14.2275 18.2627C14.1886 18.1848 14.1415 18.0703 14.0859 17.9199C14.0303 17.7696 14.002 17.6443 14.002 17.5439C14.002 17.3436 14.1611 17.0873 14.4785 16.7754C14.796 16.4636 15.1415 16.168 15.5146 15.8896C15.888 15.6113 16.2332 15.3048 16.5508 14.9707C16.8681 14.6366 17.0272 14.3585 17.0273 14.1357C17.0273 13.9799 16.9881 13.8207 16.9102 13.6592C16.8322 13.4974 16.7124 13.2995 16.5508 13.0654C16.3893 12.8318 16.2913 12.6933 16.2578 12.6484C16.0909 12.3701 15.9187 12.0714 15.7402 11.7539C15.5618 11.4366 15.3669 11.083 15.1553 10.6934C14.9438 10.3039 14.777 10.0026 14.6543 9.79102C14.2646 9.01132 13.9692 8.58712 13.7686 8.52051C13.6906 8.48713 13.5735 8.47074 13.418 8.4707Z" fill="#605151"/>
</svg>
