<svg width="40" height="40" viewBox="0 0 40 40" fill="none" xmlns="http://www.w3.org/2000/svg">
<path d="M20 0C31.0457 0 40 8.95431 40 20C40 31.0457 31.0457 40 20 40C8.95431 40 0 31.0457 0 20C0 8.95431 8.95431 0 20 0ZM18.9863 13.1787C17.1333 13.1587 15.9421 13.2785 15.4141 13.5391C15.2049 13.6491 15.0159 13.8 14.8467 13.9902C14.6674 14.2106 14.6423 14.3307 14.7715 14.3506C15.3694 14.4407 15.7929 14.6564 16.042 14.9971L16.1318 15.1777C16.2017 15.308 16.2711 15.5386 16.3408 15.8691C16.4105 16.1997 16.4558 16.5653 16.4756 16.9658C16.5253 17.6974 16.5253 18.3238 16.4756 18.8447C16.4257 19.3659 16.379 19.7719 16.334 20.0625C16.289 20.353 16.2214 20.5883 16.1318 20.7686C16.0421 20.9489 15.9821 21.0596 15.9521 21.0996C15.9223 21.1395 15.8977 21.1649 15.8779 21.1748C15.7485 21.2247 15.6139 21.25 15.4746 21.25C15.335 21.25 15.1651 21.1794 14.9658 21.0391C14.7667 20.8987 14.5598 20.7063 14.3457 20.4609C14.1314 20.2153 13.8902 19.8715 13.6211 19.4307C13.3522 18.9899 13.0731 18.4692 12.7842 17.8682L12.5449 17.4316C12.3955 17.1512 12.1916 16.7428 11.9326 16.207C11.6734 15.671 11.4443 15.1523 11.2451 14.6514C11.1655 14.4409 11.0451 14.2802 10.8857 14.1699L10.8115 14.125C10.7618 14.085 10.6818 14.0423 10.5723 13.9971C10.4626 13.9519 10.3481 13.9194 10.2285 13.8994L6.13281 13.9297C5.71453 13.9297 5.43072 14.0255 5.28125 14.2158L5.22168 14.3057C5.19182 14.3558 5.17677 14.4357 5.17676 14.5459C5.17676 14.6561 5.20677 14.792 5.2666 14.9521C5.86436 16.365 6.51447 17.7276 7.2168 19.04C7.91907 20.3524 8.52895 21.4099 9.04688 22.2109C9.56494 23.0126 10.0938 23.7693 10.6318 24.4805C11.1699 25.192 11.5259 25.6483 11.7002 25.8486C11.8747 26.0493 12.0117 26.1996 12.1113 26.2998L12.4854 26.6602C12.7245 26.9007 13.0758 27.1889 13.5391 27.5244C14.0024 27.8602 14.5153 28.1908 15.0781 28.5166C15.6412 28.842 16.2966 29.1081 17.0439 29.3135C17.791 29.519 18.5183 29.6013 19.2256 29.5615H20.9443C21.2929 29.5313 21.5568 29.4207 21.7363 29.2305L21.7959 29.1553C21.8359 29.0955 21.8737 29.0028 21.9082 28.8779C21.9432 28.7527 21.9609 28.614 21.9609 28.4639C21.9508 28.0333 21.9831 27.6453 22.0576 27.2998C22.1321 26.9542 22.2166 26.693 22.3115 26.5176C22.4063 26.3425 22.5138 26.195 22.6328 26.0752C22.7523 25.955 22.8378 25.8815 22.8877 25.8564C22.9372 25.8313 22.977 25.814 23.0068 25.8037C23.2459 25.7237 23.5275 25.8015 23.8516 26.0371C24.1754 26.2725 24.4786 26.5637 24.7627 26.9092C25.0467 27.2551 25.3886 27.6434 25.7871 28.0742C26.1857 28.505 26.5343 28.8255 26.833 29.0361L27.1318 29.2158C27.3314 29.3361 27.5904 29.4467 27.9092 29.5469C28.2275 29.647 28.5066 29.6721 28.7461 29.6221L32.5723 29.5625C32.9506 29.5625 33.2453 29.499 33.4541 29.374C33.6631 29.2489 33.787 29.1109 33.8271 28.9609C33.8671 28.8107 33.8695 28.6398 33.835 28.4492C33.7995 28.2592 33.7652 28.1259 33.7305 28.0508C33.6957 27.9755 33.6629 27.9133 33.6328 27.8633C33.1348 26.9612 32.1832 25.8537 30.7783 24.541L30.748 24.5117L30.7334 24.4961L30.7188 24.4814H30.7031C30.0659 23.8705 29.6623 23.4595 29.4932 23.249C29.1838 22.8483 29.1142 22.4423 29.2832 22.0312C29.4027 21.7206 29.8519 21.0647 30.6289 20.0625C31.0374 19.5316 31.3606 19.1058 31.5996 18.7852C33.3233 16.4807 34.0708 15.0077 33.8418 14.3662L33.7529 14.2158C33.6931 14.1256 33.5387 14.043 33.29 13.9678C33.0406 13.8926 32.7217 13.8806 32.333 13.9307L28.0283 13.96C27.9586 13.9353 27.8589 13.9377 27.7295 13.9678C27.6 13.9979 27.5352 14.0127 27.5352 14.0127L27.46 14.0508L27.4014 14.0957C27.3515 14.1256 27.2962 14.1787 27.2363 14.2539C27.1769 14.3288 27.1267 14.4165 27.0869 14.5166C26.6183 15.729 26.0862 16.8565 25.4883 17.8984C25.1196 18.5198 24.7809 19.0587 24.4717 19.5146C24.1629 19.9704 23.9034 20.3062 23.6943 20.5215C23.485 20.7369 23.2956 20.9097 23.126 21.04C22.9569 21.1701 22.8278 21.2251 22.7383 21.2051C22.6485 21.1849 22.5634 21.1645 22.4834 21.1445C22.3442 21.0543 22.2319 20.9315 22.1475 20.7764C22.0626 20.6211 22.0055 20.4258 21.9756 20.1904C21.9459 19.9549 21.9279 19.7524 21.9229 19.582C21.9182 19.4119 21.9206 19.1708 21.9307 18.8604C21.941 18.5496 21.9463 18.3388 21.9463 18.2285C21.9463 17.8479 21.953 17.4349 21.9678 16.9893C21.9828 16.5435 21.9957 16.1899 22.0059 15.9297C22.016 15.6691 22.0205 15.3931 22.0205 15.1025C22.0205 14.8121 22.0025 14.5843 21.9678 14.4189C21.9334 14.2537 21.881 14.093 21.8115 13.9375C21.7416 13.7823 21.6391 13.6624 21.5049 13.5771C21.3705 13.4921 21.2036 13.4242 21.0049 13.374C20.4767 13.2538 19.8035 13.1888 18.9863 13.1787Z" fill="#605151"/>
</svg>
